# xmcd CD database file
#
# Track frame offsets:
#	150
#	20910
#	38607
#
# Disc length: 787 seconds
#
# Revision: 0
# Processed by: cddbd v1.5.1PL0 Copyright (c) Steve Scherf et al.
# Submitted via: CDex 1.51
#
DISCID=1d031103
DTITLE=PEARL - ジェラシーに気をつけろ
DYEAR=1998
DGENRE=Rock
TTITLE0=ジェラシーに気をつけろ
TTITLE1=Sweet Life
TTITLE2=ジェラシーに気をつけろ(オリジナルカラオケ)
EXTD=YEAR: 1998
EXTT0=
EXTT1=
EXTT2=
PLAYORDER=
